<?xml version="1.0" standalone="no"?>
<!DOCTYPE svg PUBLIC "-//W3C//DTD SVG 20010904//EN"
 "http://www.w3.org/TR/2001/REC-SVG-20010904/DTD/svg10.dtd">
<svg version="1.0" xmlns="http://www.w3.org/2000/svg"
 width="700.000000pt" height="700.000000pt" viewBox="0 0 700.000000 700.000000"
 preserveAspectRatio="xMidYMid meet">
<metadata>
Created by potrace 1.11, written by Peter Selinger 2001-2013
</metadata>
<g transform="translate(0.000000,700.000000) scale(0.100000,-0.100000)"
fill="#000000" stroke="none">
<path d="M0 3500 l0 -3500 3500 0 3500 0 0 3500 0 3500 -3500 0 -3500 0 0
-3500z m2950 2531 l0 -130 -47 -6 c-215 -27 -404 -70 -482 -110 -98 -49 -144
-133 -162 -295 -5 -49 -8 -429 -7 -900 l3 -815 1253 -3 1252 -2 0 834 c0 516
-4 854 -10 887 -14 74 -63 171 -106 208 -19 17 -65 46 -102 65 -109 55 -229
89 -469 132 -22 4 -23 7 -23 134 l0 130 1105 0 1105 0 0 -129 0 -130 -57 -6
c-176 -20 -394 -69 -471 -106 -69 -34 -118 -91 -144 -168 l-23 -66 -3 -2010
c-2 -1416 1 -2029 8 -2074 35 -205 171 -292 553 -353 l137 -23 0 -127 0 -128
-1105 0 -1105 0 0 129 0 129 48 6 c26 3 101 10 167 16 166 15 230 28 301 61
76 36 134 97 165 175 l24 59 3 1013 3 1012 -1256 0 -1255 0 0 -917 c0 -505 4
-957 10 -1005 23 -226 143 -325 472 -387 57 -10 129 -22 161 -26 l57 -6 0
-130 0 -129 -1105 0 -1105 0 0 129 0 130 53 5 c28 3 106 11 172 17 164 14 244
32 316 70 98 52 150 134 169 264 13 95 13 3914 0 4009 -20 138 -91 241 -206
299 -98 49 -287 103 -466 132 l-38 6 0 129 0 130 1105 0 1105 0 0 -129z"/>
</g>
</svg>
