<svg version="1" xmlns="http://www.w3.org/2000/svg" width="933.333" height="933.333" viewBox="0 0 700.000000 700.000000"><path d="M0 350v350h700V0H0v350zM295 97v12.9l-3.2.5c-38.1 5.5-50.9 9.3-57.8 17.2-1.5 1.8-3.9 5.9-5.1 9.1l-2.4 5.8-.3 89.7-.3 89.8h250.2l-.3-85.8-.3-85.7-2.3-6c-4.4-11.7-10.5-17.5-24.6-23.4-8.7-3.6-27.8-8.7-36.8-9.8l-6.3-.8-.3-13.3-.3-13.2H626v25.9l-3.2.5c-1.8.3-6 .8-9.3 1.1-8.2.9-28 5.1-34.9 7.5-10.6 3.6-16.7 9.8-20.4 20.5-1.6 4.6-1.7 19.2-2 206.5-.3 223.4-.6 210.6 6.1 220.7 7.6 11.4 27.5 19.2 58 22.8l5.8.7-.3 13.1-.3 13.2-110.2.3-110.3.2v-26.9l4.3-.5c2.3-.3 11.2-1.2 19.8-2.1 23.2-2.2 32.3-5.7 39.6-15.3 7.1-9.4 6.8-3.4 7.1-115.5L476 356H226v97.9c0 96.2 0 98 2.1 104.6 3.4 11.2 12.4 19.1 26.9 23.8 6.9 2.2 23.8 5.7 35.3 7.2l4.7.6V617l-110.2-.2-110.3-.3-.3-13.2-.3-13.2 4.3-.5c2.4-.3 10.2-1.1 17.3-1.7 16.5-1.3 24.9-3.1 31.3-6.3 11.1-5.6 16.5-14.3 18.2-29.1 1.3-11.5 1.3-386.9 0-397.1-2-15.9-8.7-25.8-21.4-31.8-8.6-4.2-27.4-9.9-37.6-11.6-4.1-.6-8.5-1.4-9.7-1.6-2.2-.4-2.3-.8-2.3-13.4V84h221v13z"/></svg>